<svg width="48" height="48" viewBox="0 0 48 48" fill="none" xmlns="http://www.w3.org/2000/svg">
<path d="M20 32C21.1 32 22 31.1 22 30V18C22 16.9 21.1 16 20 16C18.9 16 18 16.9 18 18V30C18 31.1 18.9 32 20 32ZM24 4C12.96 4 4 12.96 4 24C4 35.04 12.96 44 24 44C35.04 44 44 35.04 44 24C44 12.96 35.04 4 24 4ZM24 40C15.18 40 8 32.82 8 24C8 15.18 15.18 8 24 8C32.82 8 40 15.18 40 24C40 32.82 32.82 40 24 40ZM28 32C29.1 32 30 31.1 30 30V18C30 16.9 29.1 16 28 16C26.9 16 26 16.9 26 18V30C26 31.1 26.9 32 28 32Z" fill="white"/>
</svg>
