<svg width="68" height="12" viewBox="0 0 68 12" fill="none" xmlns="http://www.w3.org/2000/svg">
<path opacity="0.35" d="M43.5 2.99967C43.5 1.80306 44.47 0.833008 45.6667 0.833008H62.3333C63.53 0.833008 64.5 1.80306 64.5 2.99967V8.99968C64.5 10.1963 63.53 11.1663 62.3333 11.1663H45.6667C44.47 11.1663 43.5 10.1963 43.5 8.99967V2.99967Z" stroke="black"/>
<path opacity="0.4" d="M66 3.99951V7.99951C66.8047 7.66074 67.328 6.87264 67.328 5.99951C67.328 5.12638 66.8047 4.33829 66 3.99951Z" fill="black"/>
<path d="M45 3.66634C45 2.92996 45.597 2.33301 46.3333 2.33301H61.6667C62.403 2.33301 63 2.92996 63 3.66634V8.33301C63 9.06939 62.403 9.66634 61.6667 9.66634H46.3333C45.597 9.66634 45 9.06939 45 8.33301V3.66634Z" fill="black"/>
<path fill-rule="evenodd" clip-rule="evenodd" d="M30.3309 2.60789C32.5468 2.60799 34.678 3.45943 36.2839 4.98623C36.4049 5.1041 36.5982 5.10261 36.7173 4.98289L37.8733 3.81623C37.9336 3.7555 37.9672 3.67325 37.9667 3.58767C37.9662 3.50209 37.9316 3.42024 37.8706 3.36023C33.6555 -0.67932 27.0057 -0.67932 22.7906 3.36023C22.7295 3.4202 22.6949 3.50202 22.6943 3.5876C22.6938 3.67318 22.7273 3.75546 22.7876 3.81623L23.9439 4.98289C24.063 5.1028 24.2564 5.10428 24.3773 4.98623C25.9834 3.45933 28.1148 2.60789 30.3309 2.60789ZM30.3309 6.40356C31.5484 6.40349 32.7225 6.85602 33.6249 7.67323C33.747 7.78921 33.9393 7.78669 34.0583 7.66756L35.2129 6.50089C35.2737 6.4397 35.3075 6.35668 35.3066 6.27042C35.3057 6.18415 35.2703 6.10184 35.2083 6.04189C32.4601 3.48551 28.2041 3.48551 25.4559 6.04189C25.3939 6.10184 25.3584 6.18419 25.3576 6.27049C25.3568 6.35678 25.3907 6.43979 25.4516 6.50089L26.6059 7.66756C26.7249 7.78669 26.9172 7.78921 27.0393 7.67323C27.9411 6.85656 29.1142 6.40406 30.3309 6.40356ZM32.6439 8.95738C32.6457 9.04389 32.6117 9.12729 32.5499 9.18789L30.5526 11.2036C30.4941 11.2628 30.4142 11.2961 30.3309 11.2961C30.2476 11.2961 30.1678 11.2628 30.1093 11.2036L28.1116 9.18789C28.0499 9.12724 28.0159 9.04381 28.0178 8.95731C28.0196 8.8708 28.057 8.78888 28.1213 8.73089C29.3968 7.65201 31.265 7.65201 32.5406 8.73089C32.6048 8.78893 32.6422 8.87087 32.6439 8.95738Z" fill="black"/>
<path fill-rule="evenodd" clip-rule="evenodd" d="M16.667 0.666504H15.667C15.1147 0.666504 14.667 1.11422 14.667 1.6665V10.3332C14.667 10.8855 15.1147 11.3332 15.667 11.3332H16.667C17.2193 11.3332 17.667 10.8855 17.667 10.3332V1.6665C17.667 1.11422 17.2193 0.666504 16.667 0.666504ZM11.0003 2.99984H12.0003C12.5526 2.99984 13.0003 3.44755 13.0003 3.99984V10.3332C13.0003 10.8855 12.5526 11.3332 12.0003 11.3332H11.0003C10.4481 11.3332 10.0003 10.8855 10.0003 10.3332V3.99984C10.0003 3.44755 10.4481 2.99984 11.0003 2.99984ZM7.33365 5.33317H6.33365C5.78136 5.33317 5.33365 5.78089 5.33365 6.33317V10.3332C5.33365 10.8855 5.78136 11.3332 6.33365 11.3332H7.33365C7.88593 11.3332 8.33365 10.8855 8.33365 10.3332V6.33317C8.33365 5.78089 7.88593 5.33317 7.33365 5.33317ZM2.66699 7.33317H1.66699C1.11471 7.33317 0.666992 7.78089 0.666992 8.33317V10.3332C0.666992 10.8855 1.11471 11.3332 1.66699 11.3332H2.66699C3.21928 11.3332 3.66699 10.8855 3.66699 10.3332V8.33317C3.66699 7.78089 3.21928 7.33317 2.66699 7.33317Z" fill="black"/>
</svg>
